<?xml version="1.0" encoding="UTF-8"?>
<!DOCTYPE svg PUBLIC "-//W3C//DTD SVG 1.1//EN" "http://www.w3.org/Graphics/SVG/1.1/DTD/svg11.dtd">
<!-- Creator: CorelDRAW 2018 (64-Bit) -->
<svg xmlns="http://www.w3.org/2000/svg" xml:space="preserve" width="400px" height="653px" version="1.1" style="shape-rendering:geometricPrecision; text-rendering:geometricPrecision; image-rendering:optimizeQuality; fill-rule:evenodd; clip-rule:evenodd"
viewBox="0 0 316 515.85"
 xmlns:xlink="http://www.w3.org/1999/xlink">
 <defs>
  <style type="text/css">
   <![CDATA[
    .str0 {stroke:#999999;stroke-width:0.45;stroke-linejoin:round;stroke-miterlimit:4}
    .fil0 {fill:none}
   ]]>
  </style>
 </defs>
 <g id="Layer_x0020_1">
  <metadata id="CorelCorpID_0Corel-Layer"/>
  <path class="fil0 str0" d="M157.82 405.89l27.59 -13.92 7.96 -100.63 105.31 -9.52 16.81 -23.95m0.4 108.01l-0.47 -0.26 0.47 -0.26m0 -45.46l-0.47 -0.25m-157.53 -319.43l-17.5 26.02 -105.7 9.37 -6.84 99.38 -27.63 15.23 21.58 12.05 0 52.3 69.86 43.41 17.76 -12.36 -46.08 -89.51 30.68 -52.13 -45.67 -90.37 18.68 -13.39 68.58 45.74 -4.85 49.31 27.13 14.69 -27.59 13.91 -7.97 100.63 -105.31 9.53 -16.8 23.95m21.65 -73.91l27.01 -13.94 94.95 42.13 14.06 -18.03 -48.54 -64.81 -61.65 0 -47.48 -64.97 12.67 -16.25 94.99 41.76 50.07 -27.36 49.88 27.36 94.98 -41.76 12.68 16.25 -47.49 64.97 -61.64 0 -48.54 64.81 14.06 18.03 94.95 -42.13 27.6 15.1m-136.61 -185.01l17.51 26.02 105.69 9.37 6.83 99.38 25.04 15.06 -18.98 12.22 0 52.3 -69.86 43.41 -17.76 -12.36 46.08 -89.51 -30.68 -52.13 45.66 -90.37 -18.67 -13.39 -68.58 45.74 2.89 26.45 2.51 22.23 -27.68 15.32 27.59 13.91 7.96 100.63 105.31 9.53 16.81 23.95m-157.6 257.65l-17.5 -26.02 -105.7 -9.37 -6.84 -99.39 -27.63 -15.23 21.58 -12.04 0 -52.3 69.86 -43.41 17.76 12.36 -46.08 89.51 30.68 52.13 -45.67 90.37 18.68 13.39 68.58 -45.74 0 -51.85 22.28 -12.15m0 47.47l-50.01 -27.47 -94.99 41.76 -12.67 -16.26 47.48 -64.97 61.65 0 48.54 -64.8 -14.06 -18.03 -94.95 42.14 -48.66 -26.08m157.67 86.24l-27.59 -13.92 -7.97 -100.63 -105.31 -9.52 -16.8 -23.95m157.6 257.76l17.51 -26.02 105.69 -9.37 6.83 -99.39 27.64 -15.23 -21.58 -12.04 0 -52.3 -69.86 -43.41 -17.76 12.36 46.08 89.51 -30.68 52.13 45.66 90.37 -18.67 13.39 -68.58 -45.74 0 -51.85 -22.28 -12.15m0 47.47l50.01 -27.47 94.98 41.76 12.68 -16.26 -47.49 -64.97 -61.64 0 -48.54 -64.8 14.06 -18.03 94.95 42.14 48.66 -26.08"/>
 </g>
</svg>
