<svg xmlns="http://www.w3.org/2000/svg" viewBox="0 0 163.77 163.76"><defs><style>.cls-1{isolation:isolate;}.cls-2{mix-blend-mode:overlay;}.cls-3,.cls-4{fill:#efefef;}.cls-3{fill-rule:evenodd;}</style></defs><title>logo footer</title><g class="cls-1"><g id="Layer_1" data-name="Layer 1"><g class="cls-2"><path class="cls-3" d="M102.71,136.45l.08.27a8.92,8.92,0,0,0-2.38,1.87,5.44,5.44,0,0,0-1.14,2.09,8.3,8.3,0,0,0-.23,2.64,2.44,2.44,0,0,1,.58-.56,3.93,3.93,0,0,1,1.16-.53,3.14,3.14,0,0,1,2.64.35,4.13,4.13,0,0,1,1.74,2.52,5.14,5.14,0,0,1,.14,2.42,4,4,0,0,1-2.82,3.16,3.94,3.94,0,0,1-2.33,0,4.33,4.33,0,0,1-2.06-1.42,6.5,6.5,0,0,1-1.31-2.5,8.31,8.31,0,0,1-.12-4.23,7.89,7.89,0,0,1,2-3.72,8.92,8.92,0,0,1,4-2.34m-3.57,7.65c.19.87.35,1.5.46,1.9a12.27,12.27,0,0,0,1,2.4,3.8,3.8,0,0,0,1.15,1.48,1,1,0,0,0,.82.14.94.94,0,0,0,.61-.72,4.06,4.06,0,0,0-.24-2.11,7.29,7.29,0,0,0-1.63-3.35,1.28,1.28,0,0,0-1.26-.32A2.21,2.21,0,0,0,99.14,144.1Zm-7,2.11A11.62,11.62,0,0,1,92,149.9a4.79,4.79,0,0,1-.66,1.8,4.3,4.3,0,0,1-1.12,1.2,3.21,3.21,0,0,1-3.22.31,4.55,4.55,0,0,1-1.52-1.2,7.42,7.42,0,0,1-.95-1.65,11.4,11.4,0,0,1-.78-3,12.37,12.37,0,0,1,.12-4A4.74,4.74,0,0,1,85.06,141a3.44,3.44,0,0,1,2-1,3.35,3.35,0,0,1,2.21.51,4.54,4.54,0,0,1,1.7,1.89A11.61,11.61,0,0,1,92.09,146.21Zm-3,.34c-.28-2.27-.45-3.59-.53-4a3.53,3.53,0,0,0-.68-1.75,1,1,0,0,0-.81-.21.92.92,0,0,0-.62.31,2,2,0,0,0-.33,1.24q0,.85.6,5.93a21.84,21.84,0,0,0,.64,3.67,1.76,1.76,0,0,0,.52.86,1.18,1.18,0,0,0,.74.14.89.89,0,0,0,.68-.4,3,3,0,0,0,.25-1.71Zm-9.33.76A11.81,11.81,0,0,1,79,150.9a5,5,0,0,1-1,1.62,4.35,4.35,0,0,1-1.34.94,3.09,3.09,0,0,1-1.57.26,3.13,3.13,0,0,1-1.65-.63,4.49,4.49,0,0,1-1.23-1.49,6.53,6.53,0,0,1-.58-1.81,11.16,11.16,0,0,1-.15-3.06,11.89,11.89,0,0,1,.94-3.85A4.61,4.61,0,0,1,74,140.76a3.32,3.32,0,0,1,2.18-.6,3.5,3.5,0,0,1,2.06,1,4.61,4.61,0,0,1,1.25,2.21A11.38,11.38,0,0,1,79.81,147.31Zm-3-.28c.2-2.28.3-3.61.31-4a3.67,3.67,0,0,0-.3-1.84,1.09,1.09,0,0,0-1.43-.2,2,2,0,0,0-.58,1.14c-.13.55-.35,2.53-.64,5.92a22.36,22.36,0,0,0-.14,3.72,1.67,1.67,0,0,0,.34.95,1,1,0,0,0,.69.29.87.87,0,0,0,.75-.24,3.14,3.14,0,0,0,.6-1.62Zm-12.15,5.09L57.32,150l.06-.21a43.65,43.65,0,0,0,5.69-4.26A6.16,6.16,0,0,0,64.58,143a2.34,2.34,0,0,0-.14-1.79,2.06,2.06,0,0,0-1.29-1.07,2.52,2.52,0,0,0-2.62.8l-.31-.22a5.38,5.38,0,0,1,2.27-2.2,3.7,3.7,0,0,1,2.6-.17,3.56,3.56,0,0,1,1.62.94,3.37,3.37,0,0,1,.88,1.57,3,3,0,0,1,0,1.58,5.54,5.54,0,0,1-1.4,2.31,25,25,0,0,1-5.46,3.6l2.72.78a7.32,7.32,0,0,0,1.32.3,1.11,1.11,0,0,0,.58-.15,4.28,4.28,0,0,0,.75-.69l.33.1Z"/><path class="cls-3" d="M121.69,115.22a51.27,51.27,0,0,1-88.19-49,6.5,6.5,0,0,1,7.07,1.61c1.13,1.42,3.32,1.18,3.35-.49-.66-8,.49-13.22,3-16.3C56.55,71.86,66.4,91.41,85.7,103c9,6.53,23.55,8.29,34.28,6.29a33.6,33.6,0,0,0-1.71,4.19c-.08,1.06,1,1.55,3.42,1.76"/><path class="cls-3" d="M82,31.38a51.4,51.4,0,0,1,49.35,65.1,6.13,6.13,0,0,0-5.23-2,81.37,81.37,0,0,1-21.19,1.31c-11-.64-22-6.27-30.09-14C63.93,71.56,58.27,57.06,54.31,45.7a23.9,23.9,0,0,0-1.61-5.08A50.91,50.91,0,0,1,82,31.38"/><path class="cls-3" d="M33.54,65c2.12-1.64,7,.74,8.58,2.47-.78-6.47.19-12.7,4-18,.79-.86,1.3-.55,1.65.41A148.83,148.83,0,0,0,72.2,90.4c10.16,10.44,21.9,18.88,41.18,18.09,3-.22,5.51-.46,8.29-.82a16.16,16.16,0,0,1-2.15,6c1.82-.33,3.51.23,4.84,3.35,1.21.46,7.72-11.34,6.62-17.86-.62-2.13-2-3.4-4.74-3.2a68,68,0,0,1-27.73.33C76.63,91.33,64.9,75,57.5,58.42c-1.43-3.65-3-7.34-4.53-12A36.58,36.58,0,0,0,51.21,41c-1.62-3.14-3.94-3-6.69-.9-6.36,5-12.24,19.33-11,24.9"/><path class="cls-4" d="M154.65,91.32a1,1,0,0,1-.4.7,1,1,0,0,1-.79.21,1.08,1.08,0,0,1-.7-.39.93.93,0,0,1-.21-.78,1,1,0,0,1,.39-.7,1.09,1.09,0,0,1,1.5.18,1,1,0,0,1,.21.78m-12.55,1-.25,0,.64-5,.25,0,0,.32a1.37,1.37,0,0,0,.06.69.75.75,0,0,0,.31.33,3.27,3.27,0,0,0,.89.19l6.37.81a3.21,3.21,0,0,0,.94,0,.78.78,0,0,0,.37-.28,1.22,1.22,0,0,0,.22-.62l0-.32.25,0-.64,5-.25,0,0-.31a1.26,1.26,0,0,0-.06-.69.7.7,0,0,0-.31-.33,2.56,2.56,0,0,0-.89-.19l-6.37-.82a3.07,3.07,0,0,0-.94,0,.75.75,0,0,0-.36.27,1.17,1.17,0,0,0-.23.63Zm10.48-7.39-3.24.16v-.29a3.35,3.35,0,0,0,1.94-1.08A2.54,2.54,0,0,0,152,81.9a1.63,1.63,0,0,0-.42-1.15,1.16,1.16,0,0,0-.91-.4,1.11,1.11,0,0,0-.57.16,2.56,2.56,0,0,0-.65.69c-.15.23-.41.75-.8,1.57a6.7,6.7,0,0,1-1.52,2.35,2.62,2.62,0,0,1-1.69.63,2.76,2.76,0,0,1-2.12-.9,3.44,3.44,0,0,1-.94-2.39,4,4,0,0,1,.07-.87,7.41,7.41,0,0,1,.33-1,1.38,1.38,0,0,0,.12-.57.69.69,0,0,0-.15-.39,1.07,1.07,0,0,0-.44-.32l0-.25,3.68-.1v.25a4.29,4.29,0,0,0-2.33,1.28,2.83,2.83,0,0,0-.76,2,1.8,1.8,0,0,0,.47,1.27,1.34,1.34,0,0,0,1,.45,1.24,1.24,0,0,0,.66-.2,2.23,2.23,0,0,0,.6-.56,8.58,8.58,0,0,0,.72-1.34,10.63,10.63,0,0,1,1.07-1.94,3.33,3.33,0,0,1,1-.92,2.61,2.61,0,0,1,1.24-.34,2.66,2.66,0,0,1,2,.8,3,3,0,0,1,.87,2.13,3.47,3.47,0,0,1-.09.92,4.91,4.91,0,0,1-.29.83,2,2,0,0,0-.22.69.41.41,0,0,0,.12.29,1.44,1.44,0,0,0,.55.19Zm-2.1-15.4-4.18.75.07.4a4.52,4.52,0,0,0,.45,1.44,1.44,1.44,0,0,0,.78.65,2.4,2.4,0,0,0,1.27.06,2.23,2.23,0,0,0,1.52-.8,2.27,2.27,0,0,0,.22-1.74Zm-4.68.84-2.71.48a2.83,2.83,0,0,0-1,.27.75.75,0,0,0-.27.39,2.35,2.35,0,0,0,0,.92l-.25,0-.88-4.9.25,0a2.06,2.06,0,0,0,.28.87.72.72,0,0,0,.38.28,3,3,0,0,0,1-.08L149,67.45a2.83,2.83,0,0,0,1-.27.7.7,0,0,0,.26-.39,2.3,2.3,0,0,0,0-.92l.24,0,.8,4.45a9.43,9.43,0,0,1,.21,2.58,2.53,2.53,0,0,1-.65,1.48,2.44,2.44,0,0,1-1.43.78,2.33,2.33,0,0,1-1.88-.45,3.14,3.14,0,0,1-.91-1.26l-2.84,2.88a4.9,4.9,0,0,0-.66.79,1.32,1.32,0,0,0-.12.71l-.25,0-.54-3L145.91,71Zm1.56-12-3.75,1.27.06.18a1.51,1.51,0,0,0,1,1.09,3.53,3.53,0,0,0,1.79,0l.09.26-4.83,1.63-.09-.26a3.78,3.78,0,0,0,1.18-.78,1.64,1.64,0,0,0,.47-.84,2.42,2.42,0,0,0-.17-1.07l-2.59.88a3.92,3.92,0,0,0-.91.38.61.61,0,0,0-.2.34,1.2,1.2,0,0,0,.09.6l.18.55A3.56,3.56,0,0,0,141,64.4a3.41,3.41,0,0,0,2.2.5l.08.26-3.07.57-2.69-8,.23-.07.11.3a1.24,1.24,0,0,0,.36.59.61.61,0,0,0,.42.16,2.92,2.92,0,0,0,.89-.21l6.08-2.06a4.32,4.32,0,0,0,.76-.3.66.66,0,0,0,.29-.37,1.23,1.23,0,0,0-.05-.77l-.11-.3.24-.08,2.61,7.7-2.73.92-.09-.26a3.45,3.45,0,0,0,1.25-1,2.15,2.15,0,0,0,.3-1.22,5.41,5.41,0,0,0-.36-1.46Zm-1.93-6.29-.21.12a1.6,1.6,0,0,0-1-.53,8.48,8.48,0,0,0-1.92.07l-8.11.81-.12-.2,5.06-6.74a10.41,10.41,0,0,0,1-1.52,1.12,1.12,0,0,0-.12-.82l.22-.13,2.31,4-.22.12-.07-.14a1.62,1.62,0,0,0-.57-.66.34.34,0,0,0-.36,0,.85.85,0,0,0-.24.2c-.08.09-.29.36-.64.81l-3.15,4.21,4.68-.49c.57-.06,1-.11,1.13-.15a2.18,2.18,0,0,0,.44-.16.77.77,0,0,0,.27-.3.72.72,0,0,0,.06-.42,2.25,2.25,0,0,0-.31-.76l.22-.13Zm-6-14.59a1,1,0,0,1,.22.78,1.06,1.06,0,0,1-.41.71,1,1,0,0,1-.78.22,1,1,0,0,1-.91-1.16,1,1,0,0,1,.4-.71,1,1,0,0,1,1.48.16Zm-8.13,9.62-.19.15-3.13-4,.19-.16.2.26a1.33,1.33,0,0,0,.54.44.69.69,0,0,0,.45,0,3.05,3.05,0,0,0,.76-.5l5.05-4a3.47,3.47,0,0,0,.69-.64.72.72,0,0,0,.06-.45,1.22,1.22,0,0,0-.29-.6l-.2-.25.2-.16,3.13,4-.19.15-.21-.25a1.31,1.31,0,0,0-.53-.44.69.69,0,0,0-.45,0,3,3,0,0,0-.77.5l-5,4a3.41,3.41,0,0,0-.69.65.8.8,0,0,0,0,.45,1.33,1.33,0,0,0,.28.6Zm-2-16.42-.69,7.67,2.88-3a2.07,2.07,0,0,0,.65-1,1.36,1.36,0,0,0-.56-1.09l.17-.18,2.32,2.22-.16.17a2.59,2.59,0,0,0-.75-.42.88.88,0,0,0-.52.07,3.29,3.29,0,0,0-.77.63l-5.59,5.87-.17-.17L126.93,31l-4.28,4.5a1.36,1.36,0,0,0-.51,1.09,1.41,1.41,0,0,0,.44.82l.16.16-.17.18-2.51-2.39.18-.18a1.21,1.21,0,0,0,2,0l4.75-5,0-.32a1.78,1.78,0,0,0,0-.76,1.7,1.7,0,0,0-.4-.57l.18-.18Zm-8.54-10.07a1,1,0,1,1-1,1.61.89.89,0,0,1-.41-.6.91.91,0,0,1,.12-.72,1,1,0,0,1,.6-.42A1,1,0,0,1,120.74,20.59ZM123,22a.93.93,0,0,1,.29,1.32.93.93,0,0,1-.6.42,1,1,0,0,1-.72-.13.93.93,0,0,1-.42-.6,1,1,0,0,1,.14-.72.94.94,0,0,1,.59-.42A1,1,0,0,1,123,22Zm-6.84-1,4.22,2.71-.13.21-.21-.13a1.6,1.6,0,0,0-.73-.32.6.6,0,0,0-.43.11,3.51,3.51,0,0,0-.64.83l-2.57,4A5.13,5.13,0,0,0,114.9,30a1.71,1.71,0,0,0,.17.95,2.16,2.16,0,0,0,.81.85,2.44,2.44,0,0,0,1.32.42,2.19,2.19,0,0,0,1.23-.37,5.8,5.8,0,0,0,1.4-1.68L122,26.86a2.41,2.41,0,0,0,.4-.87.83.83,0,0,0-.08-.51,2.23,2.23,0,0,0-.68-.64l.13-.2,2.83,1.81-.13.21-.17-.11a1.31,1.31,0,0,0-.66-.23,1,1,0,0,0-.6.21,2.71,2.71,0,0,0-.53.65l-2,3.11a9.59,9.59,0,0,1-1.53,2,2.71,2.71,0,0,1-1.68.59,4,4,0,0,1-2.35-.75,4.6,4.6,0,0,1-1.46-1.33,2.91,2.91,0,0,1-.48-1.71,4.08,4.08,0,0,1,.71-1.84l2.58-4a3.43,3.43,0,0,0,.48-.94.73.73,0,0,0-.09-.45,2,2,0,0,0-.65-.56Zm-12.74-5.42,2.6,7.24,1.34-3.95a2,2,0,0,0,.15-1.22,1.37,1.37,0,0,0-1-.75l.09-.24,3,1-.08.24a2.34,2.34,0,0,0-.85-.07.85.85,0,0,0-.45.28,3.18,3.18,0,0,0-.43.89l-2.59,7.68-.23-.07-3.62-9.8-2,5.88a1.2,1.2,0,0,0,.74,1.77l.22.08-.09.23L97,23.74l.07-.24a1.59,1.59,0,0,0,1.17.05,1.57,1.57,0,0,0,.66-.95l2.2-6.52-.11-.3a1.78,1.78,0,0,0-.35-.67,1.53,1.53,0,0,0-.59-.35l.07-.24ZM92.23,19.51,91.39,16l-2,3Zm.14.56L89,19.47l-.59.86a2.63,2.63,0,0,0-.34.75.69.69,0,0,0,.22.66,2.85,2.85,0,0,0,.91.33l0,.25L86,21.75l0-.24a1.46,1.46,0,0,0,.92-.29A5.57,5.57,0,0,0,88,19.91l4.78-7,.14,0L95,21.38a5,5,0,0,0,.56,1.56,1.1,1.1,0,0,0,.63.38l0,.25-4.63-.83,0-.25.19,0a1.49,1.49,0,0,0,.81,0,.37.37,0,0,0,.21-.3.62.62,0,0,0,0-.27c0-.05,0-.24-.11-.58Zm-14-7.25.11,4.24h.41a4.46,4.46,0,0,0,1.49-.22,1.48,1.48,0,0,0,.76-.68,2.29,2.29,0,0,0,.25-1.24,2.22,2.22,0,0,0-.56-1.62,2.25,2.25,0,0,0-1.69-.49Zm.12,4.75.07,2.75a3.06,3.06,0,0,0,.13,1,.65.65,0,0,0,.34.31,2.15,2.15,0,0,0,.92.1V22l-5,.13v-.25a2.2,2.2,0,0,0,.91-.15.81.81,0,0,0,.33-.33,3.15,3.15,0,0,0,.07-1L76.15,14A3.17,3.17,0,0,0,76,13a.7.7,0,0,0-.36-.31,2.21,2.21,0,0,0-.91-.1v-.25l4.51-.12a9.29,9.29,0,0,1,2.59.19,2.55,2.55,0,0,1,1.36.86,2.43,2.43,0,0,1,.56,1.53,2.31,2.31,0,0,1-.74,1.8,3.1,3.1,0,0,1-1.37.7l2.42,3.24a4.72,4.72,0,0,0,.68.77,1.19,1.19,0,0,0,.69.23v.26l-3.06.08-3.25-4.35Zm-6.69-5,.06.24a1.57,1.57,0,0,0-.8.77,9.06,9.06,0,0,0-.49,1.85l-1.58,8-.23.05-5-6.8a10.73,10.73,0,0,0-1.15-1.42,1.14,1.14,0,0,0-.83-.13l0-.25,4.52-1,0,.25-.15,0a1.53,1.53,0,0,0-.8.35.37.37,0,0,0-.09.35,1.12,1.12,0,0,0,.12.29q.1.16.6.84l3.1,4.25.9-4.62a10.52,10.52,0,0,0,.18-1.14,1.64,1.64,0,0,0,0-.46.62.62,0,0,0-.2-.34.65.65,0,0,0-.38-.18,2.31,2.31,0,0,0-.83.07l0-.25ZM54.56,18.19,56,21.88l.18-.07a1.56,1.56,0,0,0,1.05-1A3.6,3.6,0,0,0,57.1,19l.26-.1,1.87,4.74-.26.1a3.83,3.83,0,0,0-.84-1.14,1.62,1.62,0,0,0-.86-.43,2.65,2.65,0,0,0-1.05.22l1,2.55a4.11,4.11,0,0,0,.42.89A.58.58,0,0,0,58,26a1.06,1.06,0,0,0,.6-.11l.54-.21a3.45,3.45,0,0,0,1.8-1.39,3.5,3.5,0,0,0,.4-2.22l.24-.09.73,3-7.81,3.09-.1-.24.3-.11a1.38,1.38,0,0,0,.58-.4.63.63,0,0,0,.14-.43,3.32,3.32,0,0,0-.26-.87l-2.36-6a5.44,5.44,0,0,0-.33-.75.68.68,0,0,0-.39-.26,1.23,1.23,0,0,0-.76.08l-.3.12-.1-.23,7.57-3,1.06,2.67-.26.1a3.58,3.58,0,0,0-1.1-1.19,2.25,2.25,0,0,0-1.24-.24,6,6,0,0,0-1.44.43ZM41.4,21.36a1.05,1.05,0,0,1,.79-.14,1.08,1.08,0,0,1,.67.47,1,1,0,0,1,.15.8,1,1,0,0,1-.46.67,1.06,1.06,0,0,1-1.46-.33,1.08,1.08,0,0,1-.15-.8A1.07,1.07,0,0,1,41.4,21.36Zm8.79,9,.13.21-4.26,2.73-.14-.2.27-.18a1.27,1.27,0,0,0,.49-.49.68.68,0,0,0,.06-.45,2.87,2.87,0,0,0-.43-.81l-3.46-5.4a3.47,3.47,0,0,0-.57-.75.7.7,0,0,0-.45-.1,1.19,1.19,0,0,0-.62.23l-.27.17-.13-.21,4.26-2.74.14.22-.27.17a1.34,1.34,0,0,0-.49.49.66.66,0,0,0-.06.45,3,3,0,0,0,.43.81l3.46,5.4a3.47,3.47,0,0,0,.57.75.79.79,0,0,0,.45.1,1.25,1.25,0,0,0,.62-.23ZM36.67,35.05l2,2.29a3,3,0,0,0,.67.65.69.69,0,0,0,.46,0,1.27,1.27,0,0,0,.58-.31l.24-.22.17.19L37,41l-.17-.19.24-.21a1.23,1.23,0,0,0,.42-.56.64.64,0,0,0,0-.45,3.25,3.25,0,0,0-.54-.74L32.69,34a3.65,3.65,0,0,0-.68-.66.8.8,0,0,0-.45,0,1.36,1.36,0,0,0-.58.32l-.24.21-.17-.19,3.83-3.31.16.19-.24.21a1.34,1.34,0,0,0-.41.55.66.66,0,0,0,0,.46,3,3,0,0,0,.54.73l1.8,2.09,2.61-2.26-1.81-2.08a3.35,3.35,0,0,0-.67-.66.69.69,0,0,0-.46,0,1.24,1.24,0,0,0-.59.32l-.23.2-.17-.18,3.84-3.32.15.19L38.7,27a1.35,1.35,0,0,0-.42.55.8.8,0,0,0,0,.46,2.94,2.94,0,0,0,.54.74L43,33.55a3.35,3.35,0,0,0,.67.66.7.7,0,0,0,.46,0,1.3,1.3,0,0,0,.59-.31l.24-.21.16.19-3.83,3.31L41.16,37l.23-.21a1.37,1.37,0,0,0,.42-.56.77.77,0,0,0,0-.45,2.77,2.77,0,0,0-.54-.74l-2-2.29ZM31,43.44l-3.51-.9,1.69,3.21Zm.55.15-2.1,2.68.49.92a2.25,2.25,0,0,0,.49.64.68.68,0,0,0,.69.12,2.85,2.85,0,0,0,.73-.64l.19.15L30,50l-.19-.16a1.5,1.5,0,0,0,.19-.94,6.3,6.3,0,0,0-.65-1.57l-4-7.53.09-.11,8.43,2.17a5.15,5.15,0,0,0,1.65.25,1.18,1.18,0,0,0,.63-.39l.19.16-2.9,3.7-.2-.16.12-.15a1.58,1.58,0,0,0,.37-.72.42.42,0,0,0-.17-.33,1,1,0,0,0-.24-.14,5.66,5.66,0,0,0-.56-.17ZM17.14,55.4,21,57.15l.17-.38a4.5,4.5,0,0,0,.45-1.43,1.46,1.46,0,0,0-.28-1,2.3,2.3,0,0,0-1-.77,2.24,2.24,0,0,0-1.71-.2,2.3,2.3,0,0,0-1.17,1.31Zm4.33,2L24,58.49a3.31,3.31,0,0,0,1,.32.65.65,0,0,0,.43-.18,2.37,2.37,0,0,0,.49-.78l.23.1L24,62.49l-.23-.11a2,2,0,0,0,.26-.88.69.69,0,0,0-.15-.44,3.08,3.08,0,0,0-.86-.5l-5.79-2.62a3.41,3.41,0,0,0-.95-.32.68.68,0,0,0-.43.18,2.12,2.12,0,0,0-.49.78l-.23-.1L17,54.36a9.79,9.79,0,0,1,1.29-2.25,2.58,2.58,0,0,1,1.37-.85,2.47,2.47,0,0,1,1.62.16,2.32,2.32,0,0,1,1.3,1.44,3.14,3.14,0,0,1,0,1.54l4-.76a6.05,6.05,0,0,0,1-.27,1.28,1.28,0,0,0,.5-.53l.24.11-1.26,2.79-5.33,1ZM11,62.64a1,1,0,0,1,.5-.63,1.08,1.08,0,0,1,1.45.41,1,1,0,0,1,.1.8,1,1,0,0,1-.5.63,1,1,0,0,1-.81.09,1,1,0,0,1-.74-1.3Zm12.56.94.24.06-1.39,4.88-.24-.07.09-.31a1.43,1.43,0,0,0,0-.7.65.65,0,0,0-.26-.37,2.88,2.88,0,0,0-.85-.32L15,65a3.18,3.18,0,0,0-.93-.17.66.66,0,0,0-.4.21,1.27,1.27,0,0,0-.32.59l-.08.3-.24-.07L14.43,61l.24.07-.09.31a1.38,1.38,0,0,0,0,.69.69.69,0,0,0,.25.38,3.38,3.38,0,0,0,.85.32l6.17,1.75a3.08,3.08,0,0,0,.93.18.7.7,0,0,0,.4-.22,1.23,1.23,0,0,0,.32-.58ZM16.42,76l3,.38a2.88,2.88,0,0,0,.94,0,.71.71,0,0,0,.36-.28,1.22,1.22,0,0,0,.23-.62l0-.31.25,0-.65,5-.24,0,0-.32a1.35,1.35,0,0,0-.07-.69.63.63,0,0,0-.3-.33,2.92,2.92,0,0,0-.9-.19l-6.36-.81a3.28,3.28,0,0,0-.95,0,.73.73,0,0,0-.36.27,1.26,1.26,0,0,0-.23.63l0,.32-.25,0,.63-5,.26,0,0,.32a1.26,1.26,0,0,0,.06.69.65.65,0,0,0,.31.33,2.83,2.83,0,0,0,.89.19l2.74.35.44-3.42-2.75-.35a3.15,3.15,0,0,0-.93,0,.7.7,0,0,0-.37.28,1.17,1.17,0,0,0-.22.63l0,.31-.25,0,.64-5,.24,0,0,.31a1.29,1.29,0,0,0,.06.7.65.65,0,0,0,.31.33,2.83,2.83,0,0,0,.89.19l6.36.81a3.45,3.45,0,0,0,.95,0,.71.71,0,0,0,.36-.28,1.34,1.34,0,0,0,.23-.63l0-.31.24,0-.63,5-.25,0,0-.31a1.41,1.41,0,0,0-.07-.7.65.65,0,0,0-.31-.33,3.07,3.07,0,0,0-.89-.19l-3-.38ZM11.75,87.62l3.95-.29v-.2A1.54,1.54,0,0,0,15,85.84a3.55,3.55,0,0,0-1.75-.41l0-.27,5.08-.39,0,.28a3.83,3.83,0,0,0-1.33.46,1.5,1.5,0,0,0-.66.7,2.39,2.39,0,0,0-.11,1.07L19,87.07a3.73,3.73,0,0,0,1-.13.57.57,0,0,0,.28-.29,1.22,1.22,0,0,0,.07-.6l-.05-.58a3.51,3.51,0,0,0-.79-2.13,3.53,3.53,0,0,0-2-1l0-.26,3.11.2.64,8.38-.25,0,0-.32a1.4,1.4,0,0,0-.2-.67.64.64,0,0,0-.37-.26,3.05,3.05,0,0,0-.92,0L13,89.87a4.84,4.84,0,0,0-.82.1.71.71,0,0,0-.37.29,1.25,1.25,0,0,0-.14.76l0,.32-.24,0-.62-8.11L13.72,83l0,.28a3.59,3.59,0,0,0-1.47.69,2.2,2.2,0,0,0-.59,1.11,5.74,5.74,0,0,0,0,1.51Zm10.31,7.83L22,95l.57.21a1,1,0,0,1,.2-.72,1.08,1.08,0,0,1,.62-.39,1.19,1.19,0,0,1,.72.07,1.13,1.13,0,0,1,.55.46,5.33,5.33,0,0,1,.54,1.58l-.35.07a1.69,1.69,0,0,0-.44-.89.68.68,0,0,0-.61-.13.45.45,0,0,0-.3.24.78.78,0,0,0,0,.51Zm-10.33-.52,3.14-.8.06.28a3.33,3.33,0,0,0-1.68,1.44,2.62,2.62,0,0,0-.32,1.88,1.6,1.6,0,0,0,.64,1,1.19,1.19,0,0,0,1,.22,1.1,1.1,0,0,0,.52-.28,2.29,2.29,0,0,0,.5-.79A16,16,0,0,0,16,96.21a7.08,7.08,0,0,1,1-2.6,2.66,2.66,0,0,1,1.53-1,2.77,2.77,0,0,1,2.26.46,3.45,3.45,0,0,1,1.4,2.16,4.29,4.29,0,0,1,.1.86,5.35,5.35,0,0,1-.12,1.08,1.65,1.65,0,0,0,0,.59.71.71,0,0,0,.23.35.93.93,0,0,0,.5.22l.06.25-3.58.82-.05-.24a4.2,4.2,0,0,0,2-1.71,2.91,2.91,0,0,0,.36-2.08,1.78,1.78,0,0,0-.72-1.15,1.31,1.31,0,0,0-1.71.09,2.26,2.26,0,0,0-.47.68,8.94,8.94,0,0,0-.44,1.46,11.26,11.26,0,0,1-.65,2.11,3.51,3.51,0,0,1-.8,1.1,2.61,2.61,0,0,1-1.15.58,2.67,2.67,0,0,1-2.12-.39A3,3,0,0,1,12.43,98a4.18,4.18,0,0,1-.1-.92,5,5,0,0,1,.13-.87,2.12,2.12,0,0,0,.07-.72.37.37,0,0,0-.18-.25,1.2,1.2,0,0,0-.58-.08Zm5.12,14.65L20.79,108l-.14-.38a4.77,4.77,0,0,0-.72-1.32,1.49,1.49,0,0,0-.9-.49,2.55,2.55,0,0,0-1.25.19,1.88,1.88,0,0,0-1.21,2.84Zm4.42-1.75,2.56-1a2.77,2.77,0,0,0,.88-.46.63.63,0,0,0,.18-.43,2.22,2.22,0,0,0-.22-.89l.23-.1,1.83,4.63-.24.09a2,2,0,0,0-.45-.8.71.71,0,0,0-.42-.2,3,3,0,0,0-1,.27l-5.91,2.33a3.11,3.11,0,0,0-.89.46.67.67,0,0,0-.17.43,2.23,2.23,0,0,0,.21.9l-.23.09L16,108.94a9.88,9.88,0,0,1-.72-2.49,2.59,2.59,0,0,1,.35-1.57,2.45,2.45,0,0,1,1.25-1,2.31,2.31,0,0,1,1.94.07A3.15,3.15,0,0,1,20,105l2.21-3.39a4.74,4.74,0,0,0,.5-.9,1.19,1.19,0,0,0,0-.72l.25-.1L24,102.69l-3,4.55Zm5.86,2.86.22-.12L29.87,115l-.21.12-.17-.27a1.26,1.26,0,0,0-.46-.52.67.67,0,0,0-.45-.07,3.15,3.15,0,0,0-.83.38l-5.56,3.2a2.94,2.94,0,0,0-.77.54.72.72,0,0,0-.13.44,1.35,1.35,0,0,0,.2.63l.16.28-.22.12-2.52-4.39.22-.13.15.29a1.27,1.27,0,0,0,.47.5.66.66,0,0,0,.45.08,3,3,0,0,0,.83-.38l5.56-3.2a2.94,2.94,0,0,0,.77-.54.72.72,0,0,0,.13-.44,1.24,1.24,0,0,0-.2-.63Zm1.53,13,1.27-5.33a5.91,5.91,0,0,0,.2-1.74,1.6,1.6,0,0,0-.32-.77l.2-.16,3.12,4-.2.16a1.41,1.41,0,0,0-.49-.39.37.37,0,0,0-.31,0,2.86,2.86,0,0,0-.49,1.23l-.83,3.48.46.1,2.1-1.64a2.86,2.86,0,0,0,.69-.66.69.69,0,0,0,0-.46,1.81,1.81,0,0,0-.38-.7l.19-.16,3,3.86-.19.16-.2-.25A1.3,1.3,0,0,0,36,124a.76.76,0,0,0-.45,0,3.25,3.25,0,0,0-.76.5l-5.05,4a3.81,3.81,0,0,0-.69.64.8.8,0,0,0-.06.45,1.32,1.32,0,0,0,.29.6l.2.25-.2.16-3-3.8.19-.16a1.71,1.71,0,0,0,.58.51.75.75,0,0,0,.45,0,3,3,0,0,0,.78-.5l2.39-1.89-4.53-1c-.63-.14-1.05-.13-1.24,0a.48.48,0,0,0-.15.52,2.46,2.46,0,0,0,.39.68L25,125l-2.34-3,.2-.15a2.09,2.09,0,0,0,.64.51,10.2,10.2,0,0,0,1.62.43Z"/><path class="cls-4" d="M137.88,130.16a1,1,0,0,1-.72.36,1.08,1.08,0,0,1-1.13-1,1,1,0,0,1,1-1.13,1,1,0,0,1,.77.26,1,1,0,0,1,.37.72,1,1,0,0,1-.26.77m-11-6.16-.2-.16L130,120l.19.16-.21.24a1.4,1.4,0,0,0-.33.62.64.64,0,0,0,.08.44,3.17,3.17,0,0,0,.63.66l4.85,4.2a3.25,3.25,0,0,0,.76.55.67.67,0,0,0,.46,0,1.24,1.24,0,0,0,.53-.4l.21-.24.19.16-3.32,3.83-.18-.16.21-.24a1.32,1.32,0,0,0,.32-.62.68.68,0,0,0-.07-.45,3.26,3.26,0,0,0-.63-.65l-4.86-4.2a2.64,2.64,0,0,0-.76-.55.65.65,0,0,0-.45,0,1.2,1.2,0,0,0-.54.38Zm12.73-.31L136.87,122l.16-.25a3.32,3.32,0,0,0,2.2.2,2.61,2.61,0,0,0,1.57-1.09,1.61,1.61,0,0,0,.3-1.19,1.15,1.15,0,0,0-.53-.84,1,1,0,0,0-.56-.18,2.32,2.32,0,0,0-.92.2,14.76,14.76,0,0,0-1.55.85A6.63,6.63,0,0,1,135,120.8a2.65,2.65,0,0,1-1.75-.42,2.76,2.76,0,0,1-1.25-1.94,3.4,3.4,0,0,1,.57-2.5,3.37,3.37,0,0,1,.54-.68,5.24,5.24,0,0,1,.85-.67,1.55,1.55,0,0,0,.43-.41.66.66,0,0,0,.09-.41,1,1,0,0,0-.19-.52l.13-.21,3.09,2-.13.21a4.21,4.21,0,0,0-2.64-.25,2.8,2.8,0,0,0-1.73,1.19,1.89,1.89,0,0,0-.33,1.33,1.33,1.33,0,0,0,.6.94,1.35,1.35,0,0,0,.66.21,2.11,2.11,0,0,0,.82-.14,9.38,9.38,0,0,0,1.35-.7,10.81,10.81,0,0,1,2-1,3.23,3.23,0,0,1,1.34-.19,2.47,2.47,0,0,1,1.22.41,2.64,2.64,0,0,1,1.21,1.79,2.93,2.93,0,0,1-.47,2.25,4,4,0,0,1-.59.71,4.86,4.86,0,0,1-.71.52,1.9,1.9,0,0,0-.56.44.42.42,0,0,0-.07.31,1.46,1.46,0,0,0,.36.47Zm6.4-13.11-3.61-1.64-.08.18a1.52,1.52,0,0,0,0,1.46,3.48,3.48,0,0,0,1.34,1.19l-.11.26-4.65-2.1.12-.26a3.57,3.57,0,0,0,1.39.23,1.54,1.54,0,0,0,.91-.29,2.33,2.33,0,0,0,.61-.89l-2.49-1.13a4.2,4.2,0,0,0-.92-.34.6.6,0,0,0-.38.11,1.26,1.26,0,0,0-.35.5l-.24.53a3.58,3.58,0,0,0-.33,2.25,3.52,3.52,0,0,0,1.27,1.87l-.12.24-2.63-1.67,3.46-7.65.23.1-.13.29a1.3,1.3,0,0,0-.15.68.69.69,0,0,0,.2.4,2.73,2.73,0,0,0,.8.45L146,108a4.27,4.27,0,0,0,.76.31.72.72,0,0,0,.46-.08,1.21,1.21,0,0,0,.49-.6l.14-.29.22.1-3.35,7.41-2.62-1.18.11-.26a3.48,3.48,0,0,0,1.62.1,2.14,2.14,0,0,0,1-.69,5.51,5.51,0,0,0,.74-1.31Zm3.16-6.24-2.56-.59.05-.24a4.41,4.41,0,0,0,1.39-.2,2.08,2.08,0,0,0,.79-.61,2.36,2.36,0,0,0,.34-.9l.16-.72-7.32-1.69a3.42,3.42,0,0,0-.94-.13.92.92,0,0,0-.38.23,1.39,1.39,0,0,0-.29.61l-.07.31-.25-.06,1.15-4.93.24,0-.07.32a1.47,1.47,0,0,0,0,.69.71.71,0,0,0,.28.36,3.24,3.24,0,0,0,.87.28l7.32,1.69.16-.69a2,2,0,0,0-.09-1.48,2.79,2.79,0,0,0-1.43-1.13l.06-.27,2.56.59Z"/><path class="cls-3" d="M81.88,0A81.88,81.88,0,1,1,0,81.88,81.89,81.89,0,0,1,81.88,0m0,2.9a79,79,0,1,1-79,79A79,79,0,0,1,81.88,2.9Z"/></g></g></g></svg>